<svg width="36" height="36" viewBox="0 0 36 36" fill="none" xmlns="http://www.w3.org/2000/svg">
<path d="M35.5 12L35.5 24C35.5 30.3513 30.3513 35.5 24 35.5L12 35.5C5.64873 35.5 0.5 30.3513 0.5 24L0.5 12C0.5 5.64873 5.64873 0.5 12 0.5L24 0.5C30.3513 0.5 35.5 5.64873 35.5 12Z" fill="white"/>
<path d="M35.5 12L35.5 24C35.5 30.3513 30.3513 35.5 24 35.5L12 35.5C5.64873 35.5 0.5 30.3513 0.5 24L0.5 12C0.5 5.64873 5.64873 0.5 12 0.5L24 0.5C30.3513 0.5 35.5 5.64873 35.5 12Z" stroke="#F3F4F9"/>
<path d="M20.8688 13.5037C20.7344 13.6053 20.3329 13.9086 20.1015 14.0892C19.638 14.4509 19.0221 14.9451 18.408 15.4783C17.7908 16.0142 17.1897 16.5771 16.7479 17.0772C16.5263 17.328 16.3579 17.5482 16.2483 17.73C16.1453 17.901 16.1238 18.002 16.1238 18.002C16.1238 18.002 16.1453 18.1 16.2483 18.2709C16.3579 18.4527 16.5263 18.673 16.7478 18.9238C17.1897 19.4238 17.7908 19.9868 18.408 20.5226C19.0221 21.0558 19.638 21.5501 20.1015 21.9118C20.3329 22.0924 20.7338 22.3952 20.8683 22.4968C21.1462 22.7015 21.2062 23.0932 21.0015 23.3711C20.7968 23.649 20.4055 23.7084 20.1276 23.5037L20.1255 23.5021C19.9844 23.3956 19.5686 23.0815 19.3325 22.8972C18.8585 22.5273 18.2244 22.0186 17.5885 21.4665C16.9557 20.9171 16.3067 20.3124 15.8111 19.7514C15.5639 19.4717 15.3417 19.1881 15.1778 18.9163C15.0243 18.6616 14.8732 18.3392 14.8732 18.0005C14.8732 17.6617 15.0243 17.3393 15.1778 17.0847C15.3417 16.8129 15.5639 16.5293 15.8111 16.2495C16.3067 15.6886 16.9557 15.0839 17.5885 14.5344C18.2244 13.9823 18.8585 13.4736 19.3324 13.1037C19.5687 12.9193 19.9846 12.6052 20.1253 12.4989L20.1272 12.4975C20.4051 12.2928 20.7967 12.3519 21.0014 12.6298C21.2061 12.9078 21.1467 13.299 20.8688 13.5037Z" fill="#535862"/>
</svg>
