<svg width="20" height="20" viewBox="0 0 20 20" fill="none" xmlns="http://www.w3.org/2000/svg">
<path d="M1.66666 12.5C1.78563 12.8562 1.92518 13.2026 2.08384 13.5377M3.43788 15.6219C3.70131 15.9281 3.98416 16.2163 4.28446 16.4845M7.49999 18.3333C7.12686 18.2131 6.76417 18.0687 6.41367 17.9018" stroke="#4E5D69" stroke-width="1.25" stroke-linecap="round" stroke-linejoin="round"/>
<path d="M10 11.25C10.6903 11.25 11.25 10.6903 11.25 10C11.25 9.30967 10.6903 8.75 10 8.75C9.30967 8.75 8.75 9.30967 8.75 10M10 11.25C9.30967 11.25 8.75 10.6903 8.75 10M10 11.25V13.3333M8.75 10H5" stroke="#4E5D69" stroke-width="1.25" stroke-linecap="round"/>
<path d="M9.99999 18.3333C14.6023 18.3333 18.3333 14.6023 18.3333 9.99999C18.3333 5.39761 14.6023 1.66666 9.99999 1.66666C5.39761 1.66666 1.66666 5.39761 1.66666 9.99999" stroke="#4E5D69" stroke-width="1.25" stroke-linecap="round"/>
</svg>
