<svg width="36" height="36" viewBox="0 0 36 36" fill="none" xmlns="http://www.w3.org/2000/svg">
<path d="M35.5 12L35.5 24C35.5 30.3513 30.3513 35.5 24 35.5L12 35.5C5.64873 35.5 0.5 30.3513 0.5 24L0.5 12C0.5 5.64873 5.64873 0.5 12 0.5L24 0.5C30.3513 0.5 35.5 5.64873 35.5 12Z" fill="white"/>
<path d="M35.5 12L35.5 24C35.5 30.3513 30.3513 35.5 24 35.5L12 35.5C5.64873 35.5 0.5 30.3513 0.5 24L0.5 12C0.5 5.64873 5.64873 0.5 12 0.5L24 0.5C30.3513 0.5 35.5 5.64873 35.5 12Z" stroke="#F3F4F9"/>
<path fill-rule="evenodd" clip-rule="evenodd" d="M11.7251 11.7246C11.9692 11.4805 12.3649 11.4805 12.609 11.7246L18.0004 17.116L23.3918 11.7246C23.6359 11.4805 24.0316 11.4805 24.2757 11.7246C24.5197 11.9687 24.5197 12.3644 24.2757 12.6085L18.8843 17.9999L24.2757 23.3913C24.5197 23.6354 24.5197 24.0311 24.2757 24.2752C24.0316 24.5193 23.6359 24.5193 23.3918 24.2752L18.0004 18.8838L12.609 24.2752C12.3649 24.5193 11.9692 24.5193 11.7251 24.2752C11.481 24.0311 11.481 23.6354 11.7251 23.3913L17.1165 17.9999L11.7251 12.6085C11.481 12.3644 11.481 11.9687 11.7251 11.7246Z" fill="#535862"/>
</svg>
