<svg width="3" height="13" viewBox="0 0 3 13" fill="none" xmlns="http://www.w3.org/2000/svg">
<path d="M1.05469 0C0.479391 0 0.0130208 0.46637 0.0130208 1.04167C0.0130208 1.61696 0.479391 2.08333 1.05469 2.08333H1.06217C1.63747 2.08333 2.10384 1.61696 2.10384 1.04167C2.10384 0.46637 1.63747 0 1.06217 0H1.05469Z" fill="#242424"/>
<path d="M0.00651042 6.04167C0.00651042 5.46637 0.47288 5 1.04818 5H1.05566C1.63096 5 2.09733 5.46637 2.09733 6.04167C2.09733 6.61696 1.63096 7.08333 1.05566 7.08333H1.04818C0.47288 7.08333 0.00651042 6.61696 0.00651042 6.04167Z" fill="#242424"/>
<path d="M0 11.0417C0 10.4664 0.46637 10 1.04167 10H1.04915C1.62445 10 2.09082 10.4664 2.09082 11.0417C2.09082 11.617 1.62445 12.0833 1.04915 12.0833H1.04167C0.46637 12.0833 0 11.617 0 11.0417Z" fill="#242424"/>
</svg>
